<svg height="512" viewBox="0 0 128 128" width="512" xmlns="http://www.w3.org/2000/svg"><g><g><path d="m73.25 113.333h-18.5l4.75-27.875h9z" fill="#67b5bc"/><path d="m6.5 6.5h115v84.529h-115z" fill="#79d5dd"/><path d="m30.735-5.735h66.529v103h-66.529z" fill="#f0f0fb" transform="matrix(0 1 -1 0 109.765 -18.235)"/><path d="m56.1 109.5h15.8a12 12 0 0 1 12 12 0 0 0 0 1 0 0h-39.8a0 0 0 0 1 0 0 12 12 0 0 1 12-12z" fill="#79d5dd"/><g><rect fill="#f5ddcd" height="73.75" rx="6" width="45.195" x="76.305" y="47.75"/><circle cx="98.902" cy="84.625" fill="#f0f0fb" r="10"/></g></g><g fill="#0f1336"><path d="m31.5 89.28h-5.7a1.75 1.75 0 0 0 0 3.5h5.7a1.75 1.75 0 0 0 0-3.5z"/><path d="m121.5 4.75h-115a1.75 1.75 0 0 0 -1.75 1.75v84.53a1.75 1.75 0 0 0 1.75 1.75h10.833a1.75 1.75 0 0 0 0-3.5h-9.083v-81.03h111.5v39.027a7.676 7.676 0 0 0 -2.5-1.07v-33.707a1.75 1.75 0 0 0 -1.75-1.75h-17.417a1.75 1.75 0 0 0 0 3.5h15.667v31.75h-31.445a7.724 7.724 0 0 0 -5.6 2.4h-48.905a1.75 1.75 0 0 0 0 3.5h46.987a7.727 7.727 0 0 0 -.232 1.849v3.423h-46.755a1.75 1.75 0 0 0 0 3.5h46.755v5.273h-46.755a1.75 1.75 0 0 0 0 3.5h46.755v7.835h-60.305v-63.03h73.083a1.75 1.75 0 0 0 0-3.5h-74.833a1.75 1.75 0 0 0 -1.75 1.75v66.53a1.75 1.75 0 0 0 1.75 1.75h62.055v8.5h-35.368a1.75 1.75 0 1 0 0 3.5h17.289l-2.576 15.164a13.759 13.759 0 0 0 -11.55 13.556 1.75 1.75 0 0 0 1.75 1.75h71.4a7.759 7.759 0 0 0 7.75-7.75v-16.75a1.75 1.75 0 0 0 -3.5 0v16.75a4.255 4.255 0 0 1 -4.25 4.25h-33.195a4.255 4.255 0 0 1 -4.25-4.25v-61.75a4.255 4.255 0 0 1 4.25-4.25h33.195a4.255 4.255 0 0 1 4.25 4.25v35.75a1.75 1.75 0 0 0 3.5 0v-83a1.75 1.75 0 0 0 -1.75-1.75zm-46.945 103.256c-.149-.028-.3-.046-.449-.07l-2.582-15.156h3.031zm-6.582-15.226 2.549 14.97h-13.043l2.548-14.97zm-21.973 26.97a10.267 10.267 0 0 1 10.1-8.5h15.8a10.276 10.276 0 0 1 2.655.351v3.9a7.707 7.707 0 0 0 1.276 4.25z"/><path d="m16.75 22.68v9a1.75 1.75 0 0 0 3.5 0v-9a1.75 1.75 0 0 0 -3.5 0z"/><path d="m100.2 22.083h-72.4a1.75 1.75 0 0 0 0 3.5h72.4a1.75 1.75 0 0 0 0-3.5z"/><path d="m100.2 30.856h-72.4a1.75 1.75 0 0 0 0 3.5h72.4a1.75 1.75 0 0 0 0-3.5z"/><path d="m100.2 39.628h-72.4a1.75 1.75 0 1 0 0 3.5h72.4a1.75 1.75 0 0 0 0-3.5z"/><path d="m104.9 55.5a1.75 1.75 0 0 0 0-3.5h-12a1.75 1.75 0 1 0 0 3.5z"/><path d="m95.9 113.75a1.75 1.75 0 1 0 0 3.5h6a1.75 1.75 0 0 0 0-3.5z"/><path d="m110.652 84.625a11.75 11.75 0 1 0 -11.752 11.75 11.763 11.763 0 0 0 11.752-11.75zm-11.752 8.25a8.25 8.25 0 1 1 8.25-8.25 8.26 8.26 0 0 1 -8.25 8.25z"/><path d="m101.853 80.223-5.093 5.092-.808-.807a1.749 1.749 0 0 0 -2.474 2.474l2.044 2.045a1.749 1.749 0 0 0 2.475 0l6.33-6.33a1.749 1.749 0 0 0 -2.474-2.474z"/></g></g></svg>