<svg height="512" viewBox="0 0 512 512" width="512" xmlns="http://www.w3.org/2000/svg"><g id="Flat"><path d="m24 416h80a0 0 0 0 1 0 0v72a0 0 0 0 1 0 0h-48a32 32 0 0 1 -32-32v-40a0 0 0 0 1 0 0z" fill="#379ec3"/><path d="m456 424h-400a32 32 0 0 0 -32 32v-336a32 32 0 0 1 32-32h432v304a32 32 0 0 1 -32 32z" fill="#8acce7"/><path d="m456 360h-48v-336h48a32 32 0 0 1 32 32v336a32 32 0 0 0 -32-32z" fill="#a3d6eb"/><path d="m384 472a15.97833 15.97833 0 0 1 -16 16h-208l-32-16 32-16h208a15.99548 15.99548 0 0 1 16 16z" fill="#8acce7"/><path d="m176 472a15.97833 15.97833 0 0 1 -16 16l-32-16 32-16a15.99548 15.99548 0 0 1 16 16z" fill="#379ec3"/><path d="m312 456h32v32h-32z" fill="#379ec3"/><rect fill="#eedc9a" height="264" rx="40" width="296" x="80" y="120"/><path d="m376 160v24h-296v-24a40.0017 40.0017 0 0 1 40-40h216a40.00166 40.00166 0 0 1 40 40z" fill="#eebe33"/><circle cx="112" cy="152" fill="#e44042" r="8"/><circle cx="136" cy="152" fill="#e88604" r="8"/><circle cx="160" cy="152" fill="#349966" r="8"/><g fill="#eebe33"><path d="m248 224h32v16h-32z"/><path d="m296 224h56v16h-56z"/><path d="m232 256h16v16h-16z"/><path d="m312 256h40v16h-40z"/><path d="m264 256h32v16h-32z"/><path d="m328 288h24v16h-24z"/><path d="m232 288h32v16h-32z"/><path d="m280 288h32v16h-32z"/><path d="m232 320h16v16h-16z"/><path d="m264 320h88v16h-88z"/></g><path d="m104 224h112v112h-112z" fill="#c4d4e0"/><path d="m181.65674 274.34277a8.00182 8.00182 0 0 0 -11.31348 0l-2.34326 2.34323-18.34326-18.34327a8.00182 8.00182 0 0 0 -11.31348 0l-24 24 11.31348 11.31446 18.34326-18.34371 12.6861 12.68652-10.34284 10.34277 11.31348 11.31446 18.34326-18.34375 18.34326 18.34375 11.31348-11.31446z" fill="#349966"/></g></svg>